{"glyphs":{"0":{"ha":722,"x_min":0,"x_max":696,"o":"m 349 696 q 547 634 455 696 q 597 591 563 623 q 650 521 634 551 q 696 349 696 439 l 696 347 q 627 140 696 235 q 583 91 614 122 l 560 72 q 349 0 465 0 l 347 0 q 131 76 229 0 q 71 136 94 107 q 0 349 0 232 q 75 564 0 467 q 123 614 89 583 q 349 696 223 696 m 345 530 l 343 530 q 246 498 294 530 q 216 473 235 492 q 180 418 191 444 q 166 353 166 384 l 166 343 q 200 242 166 292 q 245 198 218 216 q 348 166 294 166 q 479 222 422 166 q 530 347 530 278 q 469 484 530 426 q 422 513 441 506 q 353 530 387 530 l 351 530 l 348 530 l 345 530 z "},"1":{"ha":337,"x_min":0,"x_max":269,"o":"m 85 696 l 269 696 l 269 0 l 88 0 l 88 529 q 0 486 13 491 l 0 646 q 85 696 19 659 z "},"2":{"ha":538,"x_min":0,"x_max":471,"o":"m 235 695 q 460 534 391 695 q 471 460 471 492 q 373 261 471 352 l 280 152 l 471 152 l 471 0 l 5 0 l 5 70 q 313 450 313 415 l 313 469 q 252 536 313 514 l 235 539 q 159 476 180 539 l 156 452 l 156 434 l 0 434 l 0 462 q 159 684 0 614 q 235 695 199 695 z "},"3":{"ha":542,"x_min":0,"x_max":486,"o":"m 246 695 q 433 502 425 685 q 400 397 433 448 q 486 228 486 330 l 486 226 q 414 65 486 133 q 242 0 340 0 q 12 153 84 0 q 0 226 0 194 l 142 226 q 153 191 145 210 q 237 137 186 137 l 249 137 q 335 200 308 137 l 340 218 l 340 230 q 270 314 340 294 l 249 316 l 210 316 l 210 439 l 226 439 q 307 505 307 439 l 307 511 q 249 570 294 570 l 237 570 q 178 505 191 570 l 54 505 q 161 677 54 617 q 246 695 196 695 z "},"4":{"ha":671,"x_min":0,"x_max":597,"o":"m 347 694 l 513 694 l 513 271 l 597 271 l 597 102 l 513 102 l 513 0 l 345 0 l 345 102 l 0 102 l 347 694 m 340 397 l 271 271 l 340 271 l 340 397 z "},"5":{"ha":546,"x_min":0,"x_max":472,"o":"m 470 695 q 451 538 453 552 l 197 538 l 190 474 l 239 474 q 444 352 362 474 q 472 247 472 295 l 472 225 q 329 16 472 95 q 247 0 280 0 l 225 0 q 16 143 93 0 q 0 212 4 176 l 157 212 q 188 174 184 174 q 237 157 211 157 q 315 237 302 157 q 249 315 315 294 l 19 315 l 59 695 l 470 695 z "},"6":{"ha":542,"x_min":0,"x_max":475,"o":"m 317 237 q 294 182 317 205 q 237 158 271 158 q 182 182 205 158 q 158 237 158 205 q 182 294 158 271 q 237 317 205 317 q 294 294 271 317 q 317 237 317 271 m 0 237 q 19 145 0 189 q 70 70 37 102 q 145 19 102 37 q 237 0 189 0 q 330 19 286 0 q 406 70 372 37 q 456 145 438 102 q 475 237 475 189 q 460 321 475 281 q 418 392 445 360 q 355 444 391 423 q 276 471 318 465 l 403 696 l 224 696 l 35 361 q 0 237 0 304 z "},"7":{"ha":644,"x_min":0,"x_max":574,"o":"m 0 697 l 574 697 l 203 0 l 7 0 q 287 537 21 33 l 0 537 l 0 697 z "},"8":{"ha":524,"x_min":0,"x_max":469,"o":"m 235 156 q 179 179 202 156 q 156 235 156 202 q 179 290 156 267 q 235 313 202 313 q 290 290 267 313 q 313 235 313 267 q 290 179 313 202 q 235 156 267 156 m 235 550 q 268 536 254 550 q 281 503 281 523 q 268 470 281 484 q 235 456 254 456 q 201 470 215 456 q 188 503 188 484 q 201 536 188 523 q 235 550 215 550 m 397 404 q 425 503 425 450 q 410 577 425 542 q 369 638 395 612 q 309 679 343 665 q 235 694 273 694 q 160 679 195 694 q 100 638 126 665 q 59 577 73 612 q 44 503 44 542 q 72 404 44 450 q 20 328 38 371 q 0 235 0 283 q 18 143 0 186 q 68 68 36 101 q 143 18 101 36 q 235 0 186 0 q 326 18 282 0 q 400 68 368 36 q 450 143 433 101 q 469 235 469 186 q 450 328 469 283 q 397 404 431 371 z "},"9":{"ha":538,"x_min":0,"x_max":475,"o":"m 158 458 q 182 515 158 491 q 237 538 205 538 q 294 515 271 538 q 317 458 317 491 q 294 403 317 426 q 237 379 271 379 q 182 403 205 379 q 158 458 158 426 m 475 458 q 456 551 475 507 q 406 627 438 593 q 330 677 372 659 q 237 696 286 696 q 145 677 189 696 q 70 627 102 659 q 19 551 37 593 q 0 458 0 507 q 15 375 0 415 q 57 304 30 336 q 120 252 84 273 q 199 224 157 231 l 72 0 l 251 0 l 440 335 q 475 458 475 392 z "},"\u0000":{"ha":0,"x_min":0,"x_max":0,"o":""}," ":{"ha":345,"x_min":0,"x_max":0,"o":""},"!":{"ha":205,"x_min":0,"x_max":149,"o":"m 0 696 l 149 696 l 149 199 l 0 199 l 0 696 m 0 134 l 149 134 l 149 -1 l 0 -1 l 0 134 z "},"\"":{"ha":456,"x_min":51,"x_max":413,"o":"m 51 1069 l 199 1069 l 199 748 l 51 748 l 51 1069 m 264 1069 l 413 1069 l 413 748 l 264 748 l 264 1069 z "},"#":{"ha":546,"x_min":0,"x_max":485,"o":"m 81 695 l 208 695 l 208 528 l 279 528 l 279 695 l 404 695 l 404 528 l 485 528 l 485 401 l 404 401 l 404 294 l 485 294 l 485 168 l 404 168 l 404 0 l 279 0 l 279 168 l 208 168 l 208 0 l 81 0 l 81 168 l 0 168 l 0 294 l 81 294 l 81 401 l 0 401 l 0 528 l 81 528 l 81 695 m 208 401 l 208 294 l 279 294 l 279 401 l 208 401 z "},"$":{"ha":499,"x_min":0,"x_max":433,"o":"m 172 695 l 271 695 l 271 624 q 395 571 353 608 l 420 549 q 335 459 341 460 q 223 511 269 511 l 217 511 q 174 479 174 507 l 174 474 q 292 401 174 435 q 414 320 385 363 q 433 251 433 289 l 433 245 q 303 77 433 121 l 271 69 l 271 0 l 172 0 l 172 69 q 49 123 96 85 q 0 176 12 155 l 89 258 q 227 191 167 191 q 288 231 287 195 q 165 320 285 270 q 34 476 34 385 q 122 618 34 581 q 172 629 138 625 l 172 695 z "},"%":{"ha":848,"x_min":3,"x_max":800,"o":"m 176 695 q 330 604 274 695 q 349 527 349 563 l 349 519 q 269 375 349 433 q 179 349 225 349 l 172 349 q 33 424 91 349 q 3 523 3 470 q 92 674 3 618 q 176 695 134 695 m 627 682 l 323 14 l 177 14 l 480 682 l 627 682 m 109 521 q 142 463 109 486 q 175 454 159 454 l 178 454 q 241 500 221 454 q 244 521 244 512 l 244 524 q 198 587 244 566 q 175 590 185 590 q 115 549 136 590 q 109 521 109 535 m 621 346 l 634 346 q 764 280 705 346 q 800 172 800 231 q 719 26 800 83 q 626 0 674 0 q 484 75 541 0 q 454 167 454 121 l 454 179 q 523 312 454 255 q 621 346 570 346 m 559 178 l 559 171 q 606 109 559 130 q 627 105 620 105 q 690 151 670 105 q 694 174 694 163 q 651 237 694 215 q 631 241 638 241 l 623 241 q 568 205 590 241 q 559 178 559 190 z "},"&":{"ha":677,"x_min":0,"x_max":612,"o":"m 263 694 q 442 584 385 694 q 456 500 456 544 q 358 336 456 401 l 398 288 l 482 387 l 588 265 q 498 161 555 220 l 612 22 l 409 22 q 378 60 378 53 l 374 60 q 199 0 282 0 q 5 159 49 0 l 0 205 q 111 389 0 315 q 77 491 77 437 l 77 511 q 155 661 77 597 q 263 694 201 694 m 235 498 q 259 460 235 476 q 298 511 298 483 q 274 537 292 537 l 268 537 q 235 498 235 531 m 157 199 q 203 159 157 168 q 272 186 231 159 l 272 188 l 214 261 q 157 199 157 237 z "},"'":{"ha":235,"x_min":51,"x_max":199,"o":"m 51 1069 l 199 1069 l 199 748 l 51 748 l 51 1069 z "},"(":{"ha":339,"x_min":0,"x_max":202,"o":"m 100 695 l 202 631 q 124 353 124 494 l 124 343 q 202 60 124 200 l 98 -2 q 0 350 0 159 q 100 695 0 535 z "},")":{"ha":256,"x_min":1,"x_max":204,"o":"m 105 695 q 204 344 204 536 q 107 -1 204 164 l 1 64 q 81 349 81 195 q 3 631 81 494 l 105 695 z "},"*":{"ha":694,"x_min":139,"x_max":554,"o":"m 302 1097 l 345 1024 l 391 1097 q 513 1021 491 1036 l 475 954 l 554 954 l 554 810 l 474 810 l 513 739 q 389 669 407 677 q 345 739 353 726 q 299 669 323 699 q 180 742 194 732 l 220 810 l 139 810 l 139 954 l 220 954 l 180 1024 l 302 1097 z "},"+":{"ha":688,"x_min":136,"x_max":551,"o":"m 258 696 l 429 696 l 429 574 l 551 574 l 551 403 l 429 403 l 429 281 l 258 281 l 258 403 l 136 403 l 136 574 l 258 574 l 258 696 z "},",":{"ha":378,"x_min":75,"x_max":271,"o":"m 75 163 l 271 163 l 271 1 q 149 -203 269 -154 q 81 -146 97 -166 q 138 -48 138 -99 l 138 -32 l 75 -32 l 75 163 z "},"-":{"ha":454,"x_min":22,"x_max":429,"o":"m 22 399 l 429 399 l 429 248 l 22 248 l 22 399 z "},".":{"ha":378,"x_min":87,"x_max":283,"o":"m 87 195 l 283 195 l 283 0 l 87 0 l 87 195 z "},"/":{"ha":538,"x_min":0,"x_max":488,"o":"m 488 695 l 172 0 l 0 0 q 314 695 300 673 l 488 695 z "},":":{"ha":378,"x_min":78,"x_max":273,"o":"m 78 610 l 273 610 l 273 415 l 78 415 l 78 610 m 78 195 l 273 195 l 273 0 l 78 0 l 78 195 z "},";":{"ha":378,"x_min":78,"x_max":273,"o":"m 78 610 l 273 610 l 273 414 l 78 414 l 78 610 m 78 195 l 273 195 l 273 32 q 151 -172 272 -124 l 83 -117 q 140 -17 140 -65 l 140 -1 l 78 -1 l 78 195 z "},"=":{"ha":688,"x_min":59,"x_max":629,"o":"m 59 349 l 629 349 l 629 157 l 59 157 l 59 349 m 59 670 l 629 670 l 629 479 l 59 479 l 59 670 z "},"?":{"ha":454,"x_min":0,"x_max":423,"o":"m 210 697 l 213 697 q 412 553 351 697 q 423 484 423 513 q 283 300 423 366 l 283 227 l 132 227 l 132 302 q 249 422 132 376 q 287 480 287 450 l 287 493 q 210 563 279 557 q 146 531 163 562 q 130 467 129 501 l 0 467 l 0 480 q 144 686 0 628 q 210 697 177 697 m 132 140 l 283 140 l 283 -1 l 132 -1 l 132 140 z "},"@":{"ha":743,"x_min":0,"x_max":659,"o":"m 358 695 l 367 695 q 575 614 488 695 q 659 404 659 526 l 659 398 q 577 196 659 270 q 467 155 525 155 q 385 200 414 155 l 384 203 l 383 203 q 265 155 334 155 q 168 203 208 155 q 138 299 138 242 q 220 481 138 403 q 385 544 291 544 q 513 513 456 544 l 513 513 q 473 289 473 301 l 473 278 q 478 256 473 261 l 479 256 q 541 320 522 256 q 550 388 550 351 l 550 403 q 492 549 550 491 q 361 597 437 597 l 351 597 q 209 548 275 597 q 163 500 180 524 q 108 327 108 421 l 108 312 q 164 159 108 224 q 310 100 224 100 l 325 100 q 470 143 399 100 l 504 51 q 317 0 418 0 l 299 0 q 111 67 197 0 q 61 119 73 100 q 0 310 0 204 l 0 318 q 71 545 0 441 q 240 674 131 634 q 358 695 298 695 m 255 305 l 255 299 q 276 262 255 269 l 284 260 l 290 260 q 351 309 319 260 q 372 356 363 328 l 387 439 l 382 440 l 371 440 q 281 388 321 440 q 255 305 255 349 z "},"A":{"ha":713,"x_min":0,"x_max":693,"o":"m 262 695 l 431 695 l 693 0 l 522 0 l 476 117 l 219 117 l 172 0 l 0 0 l 262 695 m 345 462 l 271 264 l 419 264 l 345 462 z "},"B":{"ha":575,"x_min":0,"x_max":557,"o":"m 0 697 l 309 697 q 414 674 374 697 q 468 634 435 665 q 513 560 500 598 q 523 498 523 528 l 523 489 q 490 381 523 433 l 490 381 q 557 221 557 313 l 557 220 q 500 73 557 138 q 461 39 472 44 q 424 18 442 26 q 378 5 389 5 q 336 0 365 1 l 0 0 l 0 697 m 180 562 l 180 426 l 284 426 q 344 463 322 426 q 351 494 351 479 q 322 549 351 527 q 282 562 304 562 l 180 562 m 180 298 l 180 144 l 289 144 q 351 166 330 144 q 374 220 374 190 l 374 224 q 342 283 374 258 q 292 298 322 298 l 180 298 z "},"C":{"ha":597,"x_min":0,"x_max":564,"o":"m 348 695 q 563 620 466 695 l 564 618 l 462 489 q 348 529 409 529 q 213 469 271 529 q 165 347 165 415 q 226 213 165 271 q 348 165 279 165 q 462 206 410 165 l 564 76 q 422 7 503 26 q 352 0 384 0 l 343 0 q 117 87 220 0 q 68 141 77 125 q 0 347 0 235 q 98 590 0 485 q 348 695 205 695 z "},"D":{"ha":679,"x_min":0,"x_max":605,"o":"m 172 695 l 256 695 q 480 614 380 695 q 529 565 511 587 q 605 347 605 467 q 530 132 605 229 q 467 71 492 88 q 399 31 436 47 q 248 0 334 0 l 172 0 l 0 0 l 0 695 l 172 695 m 180 526 l 180 170 l 253 170 q 405 249 348 170 q 435 348 435 296 q 385 471 435 416 q 250 526 332 526 l 180 526 z "},"E":{"ha":610,"x_min":0,"x_max":505,"o":"m 0 695 l 505 695 l 505 538 l 181 538 l 181 419 l 433 419 l 433 262 l 181 262 l 181 155 l 505 155 l 505 0 l 0 0 l 0 695 z "},"F":{"ha":548,"x_min":0,"x_max":481,"o":"m 0 695 l 481 695 l 481 547 l 181 547 l 181 381 l 412 381 l 412 233 l 181 233 l 181 0 l 0 0 l 0 695 z "},"G":{"ha":610,"x_min":0,"x_max":570,"o":"m 348 695 q 564 618 467 695 q 462 489 466 494 q 349 529 410 529 l 346 529 q 218 475 275 529 q 166 348 166 419 l 166 347 q 231 208 166 267 q 344 166 285 166 l 350 166 q 404 175 375 166 l 404 314 l 570 314 l 570 85 q 547 63 568 77 q 350 0 456 0 l 345 0 q 127 79 227 0 q 78 128 95 106 q 0 348 0 226 q 87 578 0 476 q 136 624 121 613 q 348 695 231 695 z "},"H":{"ha":679,"x_min":0,"x_max":600,"o":"m 0 695 l 181 695 l 181 421 l 419 421 l 419 695 l 600 695 l 600 0 l 419 0 l 419 274 l 181 274 l 181 0 l 0 0 l 0 695 z "},"I":{"ha":207,"x_min":0,"x_max":181,"o":"m 0 695 l 181 695 l 181 0 l 0 0 l 0 695 z "},"J":{"ha":273,"x_min":-185,"x_max":237,"o":"m 55 695 l 237 695 l 237 -35 q 155 -165 237 -95 q 4 -214 88 -214 q -185 -105 -111 -214 l -79 3 q 2 -40 -37 -40 q 55 16 51 -41 l 55 695 z "},"K":{"ha":679,"x_min":0,"x_max":629,"o":"m 0 695 l 181 695 l 181 419 q 400 695 199 437 l 604 695 l 369 393 l 629 0 l 412 0 q 267 216 399 16 l 250 238 l 181 148 l 181 0 l 0 0 l 0 695 z "},"L":{"ha":497,"x_min":0,"x_max":452,"o":"m 0 695 l 181 695 l 181 162 l 452 162 l 452 0 l 0 0 l 0 695 z "},"M":{"ha":882,"x_min":-1,"x_max":825,"o":"m 283 696 l 410 255 l 534 696 l 741 696 l 825 0 l 646 0 l 596 393 l 486 0 l 336 0 l 227 381 l 180 0 l -1 0 l 79 696 l 283 696 z "},"N":{"ha":679,"x_min":0,"x_max":616,"o":"m 0 695 l 178 695 l 433 290 l 433 695 l 616 695 l 616 0 l 435 0 l 181 405 l 181 0 l 0 0 l 0 695 z "},"O":{"ha":722,"x_min":0,"x_max":696,"o":"m 349 696 q 547 634 455 696 q 597 591 563 623 q 650 521 634 551 q 696 349 696 439 l 696 347 q 627 140 696 235 q 583 91 614 122 l 560 72 q 349 0 465 0 l 347 0 q 131 76 229 0 q 71 136 94 107 q 0 349 0 232 q 75 564 0 467 q 123 614 89 583 q 349 696 223 696 m 345 530 l 343 530 q 246 498 294 530 q 216 473 235 492 q 180 418 191 444 q 166 353 166 384 l 166 343 q 200 242 166 292 q 245 198 218 216 q 348 166 294 166 q 479 222 422 166 q 530 347 530 278 q 469 484 530 426 q 422 513 441 506 q 353 530 387 530 l 351 530 l 348 530 l 345 530 z "},"P":{"ha":606,"x_min":0,"x_max":538,"o":"m 0 695 l 312 695 q 531 533 467 695 l 538 486 l 538 457 q 407 262 538 335 q 321 243 363 243 l 181 243 l 181 0 l 0 0 l 0 695 m 181 547 l 181 391 l 281 391 q 359 469 359 401 q 274 547 359 539 l 181 547 z "},"Q":{"ha":745,"x_min":0,"x_max":694,"o":"m 348 695 q 574 611 472 695 q 617 567 609 578 q 694 348 694 468 q 606 116 694 220 q 568 80 579 89 l 635 -62 l 486 -134 l 418 8 q 347 1 382 1 q 112 92 216 1 q 67 142 81 123 q 0 348 0 237 q 79 569 0 469 q 129 618 110 604 q 348 695 227 695 m 163 347 q 221 213 163 271 q 348 163 277 163 q 456 198 405 163 q 506 254 491 225 q 532 348 532 298 q 485 471 532 416 q 347 532 427 532 q 212 474 271 532 q 163 347 163 418 z "},"R":{"ha":610,"x_min":0,"x_max":578,"o":"m 304 695 q 426 665 375 695 q 472 629 445 654 q 510 579 500 600 q 538 474 538 526 l 538 464 q 488 326 538 392 q 444 286 463 298 l 428 275 l 578 0 l 384 0 l 252 243 l 181 243 l 181 0 l 0 0 l 0 695 l 304 695 m 181 548 l 181 391 l 277 391 q 355 444 333 391 q 359 469 359 458 q 328 532 359 507 q 272 548 308 548 l 181 548 z "},"S":{"ha":517,"x_min":-1,"x_max":498,"o":"m 210 695 l 397 695 l 397 541 l 216 541 q 157 499 172 541 q 154 484 154 490 l 154 482 q 181 434 154 453 q 211 425 195 425 l 288 425 q 436 363 371 425 q 498 212 498 298 q 427 53 498 121 q 338 7 386 19 q 278 0 312 0 l 55 0 q -1 155 50 13 l 287 155 q 338 186 319 155 q 345 213 345 199 q 320 260 345 241 q 291 270 304 270 l 225 270 q 130 288 165 270 q 20 393 56 319 q 1 479 1 436 l 1 488 q 50 621 1 557 q 90 656 75 646 q 210 695 147 695 z "},"T":{"ha":608,"x_min":0,"x_max":550,"o":"m 0 695 l 550 695 l 550 533 l 366 533 l 366 0 l 186 0 l 186 533 l 0 533 l 0 695 z "},"U":{"ha":665,"x_min":0,"x_max":583,"o":"m 0 695 l 177 695 l 177 298 q 271 186 177 214 l 294 184 q 401 273 371 184 l 404 292 l 404 361 l 404 695 l 583 695 l 583 313 q 378 12 583 88 q 294 0 334 0 l 282 0 q 44 136 140 0 q 0 292 0 207 l 0 695 z "},"V":{"ha":764,"x_min":-1,"x_max":715,"o":"m 178 694 q 359 233 183 685 l 534 694 l 715 694 l 450 0 l 267 0 q -1 694 250 28 l 178 694 z "},"W":{"ha":987,"x_min":-1,"x_max":983,"o":"m 172 694 l 328 271 l 407 545 l 574 545 l 654 271 l 811 694 l 983 694 l 733 0 l 562 0 l 490 233 l 421 0 l 254 0 l -1 694 l 172 694 z "},"X":{"ha":733,"x_min":-2,"x_max":663,"o":"m 0 695 l 193 695 l 328 497 l 464 695 l 663 695 l 429 347 l 661 0 l 464 0 l 328 197 l 193 0 l -2 0 l 229 350 l 0 695 z "},"Y":{"ha":679,"x_min":-1,"x_max":629,"o":"m 172 695 l 312 445 l 454 695 l 629 695 l 405 283 l 405 0 l 224 0 l 224 281 l -1 695 l 172 695 z "},"Z":{"ha":679,"x_min":0,"x_max":616,"o":"m 0 697 l 616 697 l 616 593 l 262 167 l 616 167 l 616 0 l 0 0 l 0 114 l 352 530 l 0 530 l 0 697 z "},"[":{"ha":238,"x_min":0,"x_max":186,"o":"m 0 695 l 186 695 l 186 583 l 127 583 l 127 115 l 186 115 l 186 0 l 0 0 l 0 695 z "},"\\":{"ha":544,"x_min":0,"x_max":486,"o":"m 0 695 l 169 695 q 486 0 186 673 l 317 0 q 171 306 297 28 q 0 695 45 585 z "},"]":{"ha":234,"x_min":0,"x_max":186,"o":"m 0 695 l 186 695 l 186 0 l 0 0 l 0 115 l 60 115 l 60 583 l 0 583 l 0 695 z "},"^":{"ha":474,"x_min":0,"x_max":443,"o":"m 221 1017 l 443 795 l 341 694 l 221 811 l 102 694 l 0 795 l 221 1017 z "},"_":{"ha":694,"x_min":0,"x_max":694,"o":"m 0 9 l 694 9 l 694 -109 l 0 -109 l 0 9 z "},"`":{"ha":694,"x_min":220,"x_max":450,"o":"m 220 918 l 403 918 q 450 747 410 913 l 300 747 q 220 918 294 747 z "},"a":{"ha":713,"x_min":0,"x_max":693,"o":"m 262 695 l 431 695 l 693 0 l 522 0 l 476 117 l 219 117 l 172 0 l 0 0 l 262 695 m 345 462 l 271 264 l 419 264 l 345 462 z "},"b":{"ha":575,"x_min":0,"x_max":557,"o":"m 0 697 l 309 697 q 414 674 374 697 q 468 634 435 665 q 513 560 500 598 q 523 498 523 528 l 523 489 q 490 381 523 433 l 490 381 q 557 221 557 313 l 557 220 q 500 73 557 138 q 461 39 472 44 q 424 18 442 26 q 378 5 389 5 q 336 0 365 1 l 0 0 l 0 697 m 180 562 l 180 426 l 284 426 q 344 463 322 426 q 351 494 351 479 q 322 549 351 527 q 282 562 304 562 l 180 562 m 180 298 l 180 144 l 289 144 q 351 166 330 144 q 374 220 374 190 l 374 224 q 342 283 374 258 q 292 298 322 298 l 180 298 z "},"c":{"ha":597,"x_min":0,"x_max":564,"o":"m 348 695 q 563 620 466 695 l 564 618 l 462 489 q 348 529 409 529 q 213 469 271 529 q 165 347 165 415 q 226 213 165 271 q 348 165 279 165 q 462 206 410 165 l 564 76 q 422 7 503 26 q 352 0 384 0 l 343 0 q 117 87 220 0 q 68 141 77 125 q 0 347 0 235 q 98 590 0 485 q 348 695 205 695 z "},"d":{"ha":679,"x_min":0,"x_max":605,"o":"m 172 695 l 256 695 q 480 614 380 695 q 529 565 511 587 q 605 347 605 467 q 530 132 605 229 q 467 71 492 88 q 399 31 436 47 q 248 0 334 0 l 172 0 l 0 0 l 0 695 l 172 695 m 180 526 l 180 170 l 253 170 q 405 249 348 170 q 435 348 435 296 q 385 471 435 416 q 250 526 332 526 l 180 526 z "},"e":{"ha":610,"x_min":0,"x_max":505,"o":"m 0 695 l 505 695 l 505 538 l 181 538 l 181 419 l 433 419 l 433 262 l 181 262 l 181 155 l 505 155 l 505 0 l 0 0 l 0 695 z "},"f":{"ha":548,"x_min":0,"x_max":481,"o":"m 0 695 l 481 695 l 481 547 l 181 547 l 181 381 l 412 381 l 412 233 l 181 233 l 181 0 l 0 0 l 0 695 z "},"g":{"ha":610,"x_min":0,"x_max":570,"o":"m 348 695 q 564 618 467 695 q 462 489 466 494 q 349 529 410 529 l 346 529 q 218 475 275 529 q 166 348 166 419 l 166 347 q 231 208 166 267 q 344 166 285 166 l 350 166 q 404 175 375 166 l 404 314 l 570 314 l 570 85 q 547 63 568 77 q 350 0 456 0 l 345 0 q 127 79 227 0 q 78 128 95 106 q 0 348 0 226 q 87 578 0 476 q 136 624 121 613 q 348 695 231 695 z "},"h":{"ha":679,"x_min":0,"x_max":600,"o":"m 0 695 l 181 695 l 181 421 l 419 421 l 419 695 l 600 695 l 600 0 l 419 0 l 419 274 l 181 274 l 181 0 l 0 0 l 0 695 z "},"i":{"ha":207,"x_min":0,"x_max":181,"o":"m 0 695 l 181 695 l 181 0 l 0 0 l 0 695 z "},"j":{"ha":273,"x_min":-185,"x_max":237,"o":"m 55 695 l 237 695 l 237 -35 q 155 -165 237 -95 q 4 -214 88 -214 q -185 -105 -111 -214 l -79 3 q 2 -40 -37 -40 q 55 16 51 -41 l 55 695 z "},"k":{"ha":679,"x_min":0,"x_max":629,"o":"m 0 695 l 181 695 l 181 419 q 400 695 199 437 l 604 695 l 369 393 l 629 0 l 412 0 q 267 216 399 16 l 250 238 l 181 148 l 181 0 l 0 0 l 0 695 z "},"l":{"ha":497,"x_min":0,"x_max":452,"o":"m 0 695 l 181 695 l 181 162 l 452 162 l 452 0 l 0 0 l 0 695 z "},"m":{"ha":882,"x_min":-1,"x_max":825,"o":"m 283 696 l 410 255 l 534 696 l 741 696 l 825 0 l 646 0 l 596 393 l 486 0 l 336 0 l 227 381 l 180 0 l -1 0 l 79 696 l 283 696 z "},"n":{"ha":679,"x_min":0,"x_max":616,"o":"m 0 695 l 178 695 l 433 290 l 433 695 l 616 695 l 616 0 l 435 0 l 181 405 l 181 0 l 0 0 l 0 695 z "},"o":{"ha":722,"x_min":0,"x_max":696,"o":"m 349 696 q 547 634 455 696 q 597 591 563 623 q 650 521 634 551 q 696 349 696 439 l 696 347 q 627 140 696 235 q 583 91 614 122 l 560 72 q 349 0 465 0 l 347 0 q 131 76 229 0 q 71 136 94 107 q 0 349 0 232 q 75 564 0 467 q 123 614 89 583 q 349 696 223 696 m 345 530 l 343 530 q 246 498 294 530 q 216 473 235 492 q 180 418 191 444 q 166 353 166 384 l 166 343 q 200 242 166 292 q 245 198 218 216 q 348 166 294 166 q 479 222 422 166 q 530 347 530 278 q 469 484 530 426 q 422 513 441 506 q 353 530 387 530 l 351 530 l 348 530 l 345 530 z "},"p":{"ha":606,"x_min":0,"x_max":538,"o":"m 0 695 l 312 695 q 531 533 467 695 l 538 486 l 538 457 q 407 262 538 335 q 321 243 363 243 l 181 243 l 181 0 l 0 0 l 0 695 m 181 547 l 181 391 l 281 391 q 359 469 359 401 q 274 547 359 539 l 181 547 z "},"q":{"ha":745,"x_min":0,"x_max":694,"o":"m 348 695 q 574 611 472 695 q 617 567 609 578 q 694 348 694 468 q 606 116 694 220 q 568 80 579 89 l 635 -62 l 486 -134 l 418 8 q 347 1 382 1 q 112 92 216 1 q 67 142 81 123 q 0 348 0 237 q 79 569 0 469 q 129 618 110 604 q 348 695 227 695 m 163 347 q 221 213 163 271 q 348 163 277 163 q 456 198 405 163 q 506 254 491 225 q 532 348 532 298 q 485 471 532 416 q 347 532 427 532 q 212 474 271 532 q 163 347 163 418 z "},"r":{"ha":610,"x_min":0,"x_max":578,"o":"m 304 695 q 426 665 375 695 q 472 629 445 654 q 510 579 500 600 q 538 474 538 526 l 538 464 q 488 326 538 392 q 444 286 463 298 l 428 275 l 578 0 l 384 0 l 252 243 l 181 243 l 181 0 l 0 0 l 0 695 l 304 695 m 181 548 l 181 391 l 277 391 q 355 444 333 391 q 359 469 359 458 q 328 532 359 507 q 272 548 308 548 l 181 548 z "},"s":{"ha":517,"x_min":-1,"x_max":498,"o":"m 210 695 l 397 695 l 397 541 l 216 541 q 157 499 172 541 q 154 484 154 490 l 154 482 q 181 434 154 453 q 211 425 195 425 l 288 425 q 436 363 371 425 q 498 212 498 298 q 427 53 498 121 q 338 7 386 19 q 278 0 312 0 l 55 0 q -1 155 50 13 l 287 155 q 338 186 319 155 q 345 213 345 199 q 320 260 345 241 q 291 270 304 270 l 225 270 q 130 288 165 270 q 20 393 56 319 q 1 479 1 436 l 1 488 q 50 621 1 557 q 90 656 75 646 q 210 695 147 695 z "},"t":{"ha":608,"x_min":0,"x_max":550,"o":"m 0 695 l 550 695 l 550 533 l 366 533 l 366 0 l 186 0 l 186 533 l 0 533 l 0 695 z "},"u":{"ha":665,"x_min":0,"x_max":583,"o":"m 0 695 l 177 695 l 177 298 q 271 186 177 214 l 294 184 q 401 273 371 184 l 404 292 l 404 361 l 404 695 l 583 695 l 583 313 q 378 12 583 88 q 294 0 334 0 l 282 0 q 44 136 140 0 q 0 292 0 207 l 0 695 z "},"v":{"ha":764,"x_min":-1,"x_max":715,"o":"m 178 694 q 359 233 183 685 l 534 694 l 715 694 l 450 0 l 267 0 q -1 694 250 28 l 178 694 z "},"w":{"ha":987,"x_min":-1,"x_max":983,"o":"m 172 694 l 328 271 l 407 545 l 574 545 l 654 271 l 811 694 l 983 694 l 733 0 l 562 0 l 490 233 l 421 0 l 254 0 l -1 694 l 172 694 z "},"x":{"ha":733,"x_min":-2,"x_max":663,"o":"m 0 695 l 193 695 l 328 497 l 464 695 l 663 695 l 429 347 l 661 0 l 464 0 l 328 197 l 193 0 l -2 0 l 229 350 l 0 695 z "},"y":{"ha":679,"x_min":-1,"x_max":629,"o":"m 172 695 l 312 445 l 454 695 l 629 695 l 405 283 l 405 0 l 224 0 l 224 281 l -1 695 l 172 695 z "},"z":{"ha":679,"x_min":0,"x_max":616,"o":"m 0 697 l 616 697 l 616 593 l 262 167 l 616 167 l 616 0 l 0 0 l 0 114 l 352 530 l 0 530 l 0 697 z "},"{":{"ha":250,"x_min":0,"x_max":210,"o":"m 210 695 l 210 590 q 179 578 210 587 q 163 538 163 566 l 163 420 q 139 348 163 382 q 163 276 163 314 l 163 155 q 200 109 163 111 l 210 109 l 210 1 q 67 90 111 1 q 54 153 54 121 l 54 273 q 11 292 54 292 l 0 292 l 0 404 l 21 404 q 54 418 45 404 l 54 538 q 161 689 54 652 q 210 695 192 695 z "},"|":{"ha":688,"x_min":290,"x_max":398,"o":"m 290 1069 l 398 1069 l 398 -283 l 290 -283 l 290 1069 z "},"}":{"ha":269,"x_min":0,"x_max":210,"o":"m 0 695 q 141 612 93 695 q 155 538 155 576 l 155 418 q 189 404 163 404 l 210 404 l 210 292 l 199 292 q 155 272 155 292 l 155 157 q 43 5 155 40 q 0 0 21 0 l 0 106 q 26 114 0 109 q 46 154 46 125 l 46 275 q 71 349 46 311 q 46 420 46 379 l 46 538 q 21 583 46 572 q 0 589 0 585 l 0 695 z "},"~":{"ha":688,"x_min":64,"x_max":626,"o":"m 626 595 l 626 490 q 543 424 583 441 q 465 406 503 406 q 344 439 424 406 q 224 472 264 472 q 152 453 190 472 q 64 377 113 434 l 64 483 q 147 550 107 532 q 224 568 187 568 q 348 534 268 568 q 465 500 427 500 q 538 519 500 500 q 626 595 576 538 z "},"¡":{"ha":201,"x_min":0,"x_max":149,"o":"m 0 543 l 149 543 l 149 408 l 0 408 l 0 543 m 0 343 l 149 343 l 149 -154 l 0 -154 l 0 343 z "},"£":{"ha":536,"x_min":0,"x_max":474,"o":"m 258 696 q 449 588 399 696 q 468 496 468 543 l 343 496 l 344 510 q 291 583 344 566 q 249 589 273 589 q 176 551 195 589 q 168 516 168 536 l 168 510 q 191 418 168 488 l 192 414 l 321 414 l 321 306 l 210 306 l 212 277 q 178 157 212 198 l 178 156 q 350 130 210 156 l 360 130 q 474 170 399 130 l 474 43 q 416 20 463 33 q 370 15 390 15 l 366 15 q 222 47 324 15 q 162 56 186 56 l 155 56 q 3 0 82 56 l 1 1 l 1 119 q 31 135 1 121 q 102 265 102 191 q 96 306 100 284 l 0 306 l 0 414 l 60 414 l 60 414 q 51 500 51 468 q 130 663 51 603 q 258 696 181 696 z "},"¤":{"ha":688,"x_min":83,"x_max":604,"o":"m 272 414 q 317 389 291 396 q 344 385 330 385 q 370 389 357 385 q 415 414 396 396 q 441 460 433 433 q 445 486 445 473 q 441 512 445 499 q 415 557 433 538 q 370 583 396 576 q 343 587 356 587 q 317 583 330 587 q 272 557 290 575 q 247 513 254 539 q 242 486 242 499 q 246 460 242 473 q 272 414 254 433 m 163 612 l 83 692 l 137 747 l 217 667 q 284 699 247 688 q 345 708 314 708 q 401 700 372 708 q 470 667 439 688 l 550 747 l 604 692 l 525 613 q 557 544 546 582 q 566 486 566 515 q 557 429 566 458 q 525 359 546 391 l 604 280 l 550 225 l 470 305 q 401 273 439 283 q 344 264 373 264 q 286 273 315 264 q 217 305 248 283 l 137 225 l 83 280 l 163 359 q 130 429 141 391 q 122 486 122 458 q 131 545 122 516 q 163 612 142 583 z "},"¥":{"ha":764,"x_min":0,"x_max":705,"o":"m 38 695 l 210 695 q 350 445 217 695 q 495 695 487 695 l 667 695 l 576 524 l 705 524 l 705 448 l 531 448 l 481 353 l 705 353 l 705 276 l 443 276 l 443 0 l 262 0 l 262 276 l 0 276 l 0 353 l 224 353 l 224 355 l 174 448 l 0 448 l 0 524 l 129 524 q 38 695 38 688 z "},"¦":{"ha":688,"x_min":240,"x_max":462,"o":"m 240 252 l 462 252 l 462 -283 l 240 -283 l 240 252 m 240 1070 l 462 1070 l 462 535 l 240 535 l 240 1070 z "},"¨":{"ha":694,"x_min":167,"x_max":513,"o":"m 167 916 l 302 916 l 302 781 l 167 781 l 167 916 m 378 916 l 513 916 l 513 781 l 378 781 l 378 916 z "},"©":{"ha":747,"x_min":0,"x_max":694,"o":"m 351 694 q 627 553 515 694 q 694 344 694 460 q 520 46 694 160 q 346 0 437 0 q 33 197 144 0 q 0 351 0 271 q 181 652 0 542 q 351 694 256 694 m 109 346 q 241 135 109 214 q 337 111 294 111 l 357 111 q 567 256 488 111 q 583 337 583 307 l 583 357 q 448 562 583 484 q 349 585 391 585 q 130 444 205 585 q 109 346 109 390 m 353 527 q 463 488 416 527 l 411 420 q 351 441 384 441 q 264 376 292 441 l 260 357 l 260 344 q 353 253 260 269 q 411 274 383 256 l 463 207 q 367 170 416 170 l 339 170 q 188 274 248 170 q 174 344 174 311 l 174 357 q 283 513 174 455 q 353 527 321 527 z "},"®":{"ha":747,"x_min":0,"x_max":695,"o":"m 351 695 q 628 553 515 695 q 695 344 695 460 q 521 47 695 160 q 347 0 437 0 q 33 197 144 0 q 0 351 0 271 q 181 653 0 542 q 351 695 256 695 m 109 347 q 242 135 109 214 q 337 112 294 112 l 358 112 q 567 256 488 112 q 583 337 583 307 l 583 358 q 449 563 583 485 q 349 586 392 586 q 130 444 205 586 q 109 347 109 391 m 235 498 l 368 498 q 460 435 434 498 q 467 397 467 420 q 420 316 467 349 l 485 197 l 404 197 q 344 302 396 203 l 314 302 l 314 197 l 235 197 l 235 498 m 314 435 l 314 368 l 360 368 q 391 400 383 368 q 344 435 391 435 l 314 435 z "},"°":{"ha":457,"x_min":35,"x_max":401,"o":"m 220 975 q 366 901 307 975 q 401 790 401 852 q 310 633 401 693 q 218 609 266 609 q 52 713 111 609 q 35 794 35 752 q 131 953 35 895 q 220 975 170 975 m 93 791 q 163 680 93 722 q 213 668 191 668 l 224 668 q 334 744 292 668 q 342 787 342 770 l 342 798 q 272 905 342 864 q 219 918 241 918 q 104 843 144 918 q 93 791 93 814 z "},"´":{"ha":694,"x_min":220,"x_max":452,"o":"m 452 916 q 370 745 389 774 l 220 745 l 264 916 l 452 916 z "},"·":{"ha":345,"x_min":78,"x_max":273,"o":"m 78 575 l 273 575 l 273 380 l 78 380 l 78 575 z "},"¸":{"ha":694,"x_min":244,"x_max":521,"o":"m 244 -189 q 348 -216 304 -211 q 416 -209 391 -220 q 440 -163 441 -197 q 407 -126 437 -134 q 360 -119 377 -119 q 292 -119 343 -120 l 324 0 l 380 0 l 362 -66 q 413 -65 370 -64 q 488 -95 456 -67 q 521 -172 521 -122 q 488 -254 521 -223 q 376 -286 454 -284 q 244 -262 296 -284 l 244 -189 z "},"¿":{"ha":476,"x_min":1,"x_max":425,"o":"m 214 -230 l 212 -230 q 12 -85 73 -230 q 1 -17 1 -46 q 142 168 1 101 l 142 240 l 293 240 l 293 165 q 176 45 293 92 q 138 -13 138 17 l 138 -26 q 214 -96 145 -90 q 278 -64 261 -94 q 295 0 296 -34 l 425 0 l 425 -13 q 280 -219 425 -161 q 214 -230 248 -230 m 293 328 l 142 328 l 142 468 l 293 468 l 293 328 z "},"À":{"ha":718,"x_min":0,"x_max":693,"o":"m 188 918 l 371 918 q 418 747 377 906 l 268 747 q 188 918 262 753 m 262 695 l 431 695 q 693 0 441 673 l 522 0 q 476 117 512 24 l 219 117 l 172 0 l 0 0 l 250 676 q 262 695 256 694 m 345 462 l 271 264 l 419 264 l 345 462 z "},"Á":{"ha":720,"x_min":0,"x_max":693,"o":"m 262 695 l 431 695 q 693 0 441 673 l 522 0 q 476 117 512 24 l 219 117 l 172 0 l 0 0 l 250 676 q 262 695 256 694 m 345 462 l 271 264 l 419 264 l 345 462 m 504 916 q 421 745 433 767 l 271 745 l 315 916 l 504 916 z "},"Â":{"ha":718,"x_min":0,"x_max":693,"o":"m 352 951 l 536 811 l 452 747 l 352 821 l 252 747 l 168 811 l 352 951 m 262 695 l 431 695 q 693 0 441 673 l 522 0 q 476 117 512 24 l 219 117 l 172 0 l 0 0 l 250 676 q 262 695 256 694 m 345 462 l 271 264 l 419 264 l 345 462 z "},"Ã":{"ha":718,"x_min":0,"x_max":693,"o":"m 262 695 l 431 695 q 693 0 441 673 l 522 0 q 476 117 512 24 l 219 117 l 172 0 l 0 0 l 250 676 q 262 695 256 694 m 345 462 l 271 264 l 419 264 l 345 462 m 159 850 q 205 898 180 883 q 250 912 226 912 q 296 903 271 912 q 319 892 307 899 l 331 887 l 342 882 q 389 861 373 866 q 434 851 414 851 q 480 865 459 851 q 526 913 505 880 l 526 806 q 480 758 505 773 q 434 744 459 744 q 389 753 414 744 q 342 774 373 759 l 331 780 l 319 785 q 296 795 307 791 q 250 805 271 805 q 205 791 226 804 q 159 742 180 776 l 159 850 z "},"Ä":{"ha":720,"x_min":0,"x_max":693,"o":"m 262 695 l 431 695 q 693 0 441 673 l 522 0 q 476 117 512 24 l 219 117 l 172 0 l 0 0 l 250 676 q 262 695 256 694 m 345 462 l 271 264 l 419 264 l 345 462 m 181 882 l 317 882 l 317 747 l 181 747 l 181 882 m 392 882 l 528 882 l 528 747 l 392 747 l 392 882 z "},"Ç":{"ha":610,"x_min":2,"x_max":569,"o":"m 355 695 q 569 618 475 695 l 471 489 l 426 513 q 351 529 382 529 q 182 414 241 529 q 168 344 169 374 q 290 173 168 231 q 347 163 319 163 l 363 163 q 463 201 411 163 q 569 70 565 76 q 414 -1 479 8 l 410 -19 q 489 -80 410 -32 q 513 -132 513 -106 q 351 -268 513 -215 l 302 -185 l 304 -185 q 391 -132 391 -160 q 318 -66 391 -101 q 295 -26 295 -47 l 295 -24 l 300 -1 l 297 -1 q 136 70 198 19 q 2 349 2 180 q 184 653 2 541 q 355 695 260 695 z "},"È":{"ha":610,"x_min":0,"x_max":505,"o":"m 0 695 l 505 695 l 505 538 l 181 538 l 181 419 l 433 419 l 433 262 l 181 262 l 181 155 l 505 155 l 505 0 l 0 0 l 0 695 m 90 918 l 273 918 q 320 747 279 906 l 170 747 q 90 918 165 753 z "},"É":{"ha":610,"x_min":0,"x_max":505,"o":"m 0 695 l 505 695 l 505 538 l 181 538 l 181 419 l 433 419 l 433 262 l 181 262 l 181 155 l 505 155 l 505 0 l 0 0 l 0 695 m 402 916 q 319 745 332 767 l 170 745 l 214 916 l 402 916 z "},"Ê":{"ha":610,"x_min":0,"x_max":505,"o":"m 259 951 l 444 811 l 359 747 l 259 821 l 159 747 l 75 811 l 259 951 m 0 695 l 505 695 l 505 538 l 181 538 l 181 419 l 433 419 l 433 262 l 181 262 l 181 155 l 505 155 l 505 0 l 0 0 l 0 695 z "},"Ë":{"ha":610,"x_min":0,"x_max":505,"o":"m 82 882 l 218 882 l 218 747 l 82 747 l 82 882 m 293 882 l 429 882 l 429 747 l 293 747 l 293 882 m 0 695 l 505 695 l 505 538 l 181 538 l 181 419 l 433 419 l 433 262 l 181 262 l 181 155 l 505 155 l 505 0 l 0 0 l 0 695 z "},"Ì":{"ha":207,"x_min":-56,"x_max":181,"o":"m 0 695 l 181 695 l 181 0 l 0 0 l 0 695 m -56 918 l 127 918 q 174 747 134 906 l 24 747 q -56 918 19 753 z "},"Í":{"ha":207,"x_min":0,"x_max":236,"o":"m 0 695 l 181 695 l 181 0 l 0 0 l 0 695 m 236 916 q 153 745 165 767 l 3 745 l 47 916 l 236 916 z "},"Î":{"ha":207,"x_min":-93,"x_max":276,"o":"m 92 951 l 276 811 l 191 747 l 92 821 l -8 747 l -93 811 l 92 951 m 0 695 l 181 695 l 181 0 l 0 0 l 0 695 z "},"Ï":{"ha":207,"x_min":-80,"x_max":267,"o":"m 0 695 l 181 695 l 181 0 l 0 0 l 0 695 m -80 880 l 56 880 l 56 745 l -80 745 l -80 880 m 131 880 l 267 880 l 267 745 l 131 745 l 131 880 z "},"Ñ":{"ha":679,"x_min":0,"x_max":616,"o":"m 0 695 l 178 695 l 433 290 l 433 695 l 616 695 l 616 0 l 435 0 l 181 405 l 181 0 l 0 0 l 0 695 m 117 836 q 163 884 139 869 q 209 898 184 898 q 255 888 229 898 q 278 878 265 884 l 290 873 l 301 867 q 347 846 332 852 q 393 837 372 837 q 439 850 418 837 q 485 899 463 866 l 485 792 q 439 743 463 759 q 393 730 418 730 q 347 739 372 730 q 301 760 332 745 l 290 766 l 278 771 q 255 781 265 777 q 209 791 229 791 q 163 777 184 790 q 117 728 139 762 l 117 836 z "},"Ò":{"ha":747,"x_min":0,"x_max":696,"o":"m 349 696 q 547 634 455 696 q 597 591 563 623 q 650 521 634 551 q 696 349 696 439 l 696 347 q 627 140 696 235 q 583 91 614 122 l 560 72 q 349 0 465 0 l 347 0 q 131 76 229 0 q 71 136 94 107 q 0 349 0 232 q 75 564 0 467 q 123 614 89 583 q 349 696 223 696 m 345 530 l 343 530 q 246 498 294 530 q 216 473 235 492 q 180 418 191 444 q 166 353 166 384 l 166 343 q 200 242 166 292 q 245 198 218 216 q 348 166 294 166 q 479 222 422 166 q 530 347 530 278 q 469 484 530 426 q 422 513 441 506 q 353 530 387 530 l 351 530 l 348 530 l 345 530 m 194 918 l 377 918 q 424 747 383 906 l 274 747 q 194 918 269 753 z "},"Ó":{"ha":747,"x_min":0,"x_max":696,"o":"m 349 696 q 547 634 455 696 q 597 591 563 623 q 650 521 634 551 q 696 349 696 439 l 696 347 q 627 140 696 235 q 583 91 614 122 l 560 72 q 349 0 465 0 l 347 0 q 131 76 229 0 q 71 136 94 107 q 0 349 0 232 q 75 564 0 467 q 123 614 89 583 q 349 696 223 696 m 345 530 l 343 530 q 246 498 294 530 q 216 473 235 492 q 180 418 191 444 q 166 353 166 384 l 166 343 q 200 242 166 292 q 245 198 218 216 q 348 166 294 166 q 479 222 422 166 q 530 347 530 278 q 469 484 530 426 q 422 513 441 506 q 353 530 387 530 l 351 530 l 348 530 l 345 530 m 492 916 q 409 745 421 767 l 259 745 l 303 916 l 492 916 z "},"Ô":{"ha":747,"x_min":0,"x_max":696,"o":"m 353 951 l 538 811 l 453 747 l 353 821 l 254 747 l 169 811 l 353 951 m 349 696 q 547 634 455 696 q 597 591 563 623 q 650 521 634 551 q 696 349 696 439 l 696 347 q 627 140 696 235 q 583 91 614 122 l 560 72 q 349 0 465 0 l 347 0 q 131 76 229 0 q 71 136 94 107 q 0 349 0 232 q 75 564 0 467 q 123 614 89 583 q 349 696 223 696 m 345 530 l 343 530 q 246 498 294 530 q 216 473 235 492 q 180 418 191 444 q 166 353 166 384 l 166 343 q 200 242 166 292 q 245 198 218 216 q 348 166 294 166 q 479 222 422 166 q 530 347 530 278 q 469 484 530 426 q 422 513 441 506 q 353 530 387 530 l 351 530 l 348 530 l 345 530 z "},"Õ":{"ha":747,"x_min":0,"x_max":696,"o":"m 349 696 q 547 634 455 696 q 597 591 563 623 q 650 521 634 551 q 696 349 696 439 l 696 347 q 627 140 696 235 q 583 91 614 122 l 560 72 q 349 0 465 0 l 347 0 q 131 76 229 0 q 71 136 94 107 q 0 349 0 232 q 75 564 0 467 q 123 614 89 583 q 349 696 223 696 m 345 530 l 343 530 q 246 498 294 530 q 216 473 235 492 q 180 418 191 444 q 166 353 166 384 l 166 343 q 200 242 166 292 q 245 198 218 216 q 348 166 294 166 q 479 222 422 166 q 530 347 530 278 q 469 484 530 426 q 422 513 441 506 q 353 530 387 530 l 351 530 l 348 530 l 345 530 m 155 850 q 201 899 176 884 q 246 913 222 913 q 292 903 267 913 q 315 893 302 899 l 327 888 l 338 882 q 385 861 369 867 q 430 852 410 852 q 476 865 455 852 q 522 914 500 881 l 522 807 q 476 758 500 774 q 430 745 455 745 q 385 754 410 745 q 338 775 369 760 l 327 781 l 315 786 q 292 796 302 792 q 246 806 267 806 q 201 791 222 805 q 155 743 176 777 l 155 850 z "},"Ö":{"ha":747,"x_min":0,"x_max":696,"o":"m 349 696 q 547 634 455 696 q 597 591 563 623 q 650 521 634 551 q 696 349 696 439 l 696 347 q 627 140 696 235 q 583 91 614 122 l 560 72 q 349 0 465 0 l 347 0 q 131 76 229 0 q 71 136 94 107 q 0 349 0 232 q 75 564 0 467 q 123 614 89 583 q 349 696 223 696 m 345 530 l 343 530 q 246 498 294 530 q 216 473 235 492 q 180 418 191 444 q 166 353 166 384 l 166 343 q 200 242 166 292 q 245 198 218 216 q 348 166 294 166 q 479 222 422 166 q 530 347 530 278 q 469 484 530 426 q 422 513 441 506 q 353 530 387 530 l 351 530 l 348 530 l 345 530 m 395 882 l 522 882 l 526 878 l 526 751 l 522 747 l 395 747 l 391 751 l 391 878 l 395 882 m 130 880 l 266 880 l 266 745 l 130 745 l 130 880 z "},"Ù":{"ha":665,"x_min":0,"x_max":583,"o":"m 0 695 l 177 695 l 177 298 q 271 186 177 214 l 294 184 q 401 273 371 184 l 404 292 l 404 361 l 404 695 l 583 695 l 583 313 q 378 12 583 88 q 294 0 334 0 l 282 0 q 44 136 140 0 q 0 292 0 207 l 0 695 m 148 918 l 331 918 q 378 747 337 906 l 228 747 q 148 918 222 753 z "},"Ú":{"ha":665,"x_min":0,"x_max":583,"o":"m 0 695 l 177 695 l 177 298 q 271 186 177 214 l 294 184 q 401 273 371 184 l 404 292 l 404 361 l 404 695 l 583 695 l 583 313 q 378 12 583 88 q 294 0 334 0 l 282 0 q 44 136 140 0 q 0 292 0 207 l 0 695 m 437 916 q 355 745 367 767 l 205 745 l 249 916 l 437 916 z "},"Û":{"ha":665,"x_min":0,"x_max":583,"o":"m 292 951 l 477 811 l 392 747 l 292 821 l 193 747 l 108 811 l 292 951 m 0 695 l 177 695 l 177 298 q 271 186 177 214 l 294 184 q 401 273 371 184 l 404 292 l 404 361 l 404 695 l 583 695 l 583 313 q 378 12 583 88 q 294 0 334 0 l 282 0 q 44 136 140 0 q 0 292 0 207 l 0 695 z "},"Ü":{"ha":665,"x_min":0,"x_max":583,"o":"m 0 695 l 177 695 l 177 298 q 271 186 177 214 l 294 184 q 401 273 371 184 l 404 292 l 404 361 l 404 695 l 583 695 l 583 313 q 378 12 583 88 q 294 0 334 0 l 282 0 q 44 136 140 0 q 0 292 0 207 l 0 695 m 118 882 l 254 882 l 254 747 l 118 747 l 118 882 m 329 882 l 465 882 l 465 747 l 329 747 l 329 882 z "},"à":{"ha":718,"x_min":0,"x_max":693,"o":"m 262 695 l 431 695 q 693 0 441 673 l 522 0 q 476 117 512 24 l 219 117 l 172 0 l 0 0 l 250 676 q 262 695 256 694 m 345 462 l 271 264 l 419 264 l 345 462 m 185 918 l 368 918 q 415 747 374 906 l 265 747 q 185 918 260 753 z "},"á":{"ha":720,"x_min":0,"x_max":693,"o":"m 262 695 l 431 695 q 693 0 441 673 l 522 0 q 476 117 512 24 l 219 117 l 172 0 l 0 0 l 250 676 q 262 695 256 694 m 345 462 l 271 264 l 419 264 l 345 462 m 504 916 q 421 745 433 767 l 271 745 l 315 916 l 504 916 z "},"â":{"ha":718,"x_min":0,"x_max":693,"o":"m 352 951 l 536 811 l 452 747 l 352 821 l 252 747 l 168 811 l 352 951 m 262 695 l 431 695 q 693 0 441 673 l 522 0 q 476 117 512 24 l 219 117 l 172 0 l 0 0 l 250 676 q 262 695 256 694 m 345 462 l 271 264 l 419 264 l 345 462 z "},"ã":{"ha":718,"x_min":0,"x_max":693,"o":"m 262 695 l 431 695 q 693 0 441 673 l 522 0 q 476 117 512 24 l 219 117 l 172 0 l 0 0 l 250 676 q 262 695 256 694 m 345 462 l 271 264 l 419 264 l 345 462 m 155 850 q 201 899 176 884 q 246 913 222 913 q 292 903 267 913 q 315 893 302 899 l 327 888 l 338 882 q 385 861 369 867 q 430 852 410 852 q 476 865 455 852 q 522 914 500 881 l 522 807 q 476 758 500 774 q 430 745 455 745 q 385 754 410 745 q 338 775 369 760 l 327 781 l 315 786 q 292 796 302 792 q 246 806 267 806 q 201 791 222 805 q 155 743 176 777 l 155 850 z "},"ä":{"ha":720,"x_min":0,"x_max":693,"o":"m 262 695 l 431 695 q 693 0 441 673 l 522 0 q 476 117 512 24 l 219 117 l 172 0 l 0 0 l 250 676 q 262 695 256 694 m 345 462 l 271 264 l 419 264 l 345 462 m 181 882 l 317 882 l 317 747 l 181 747 l 181 882 m 392 882 l 528 882 l 528 747 l 392 747 l 392 882 z "},"ç":{"ha":610,"x_min":2,"x_max":569,"o":"m 355 695 q 569 618 475 695 l 471 489 l 426 513 q 351 529 382 529 q 182 414 241 529 q 168 344 169 374 q 290 173 168 231 q 347 163 319 163 l 363 163 q 463 201 411 163 q 569 70 565 76 q 414 -1 479 8 l 410 -19 q 489 -80 410 -32 q 513 -132 513 -106 q 351 -268 513 -215 l 302 -185 l 304 -185 q 391 -132 391 -160 q 318 -66 391 -101 q 295 -26 295 -47 l 295 -24 l 300 -1 l 297 -1 q 136 70 198 19 q 2 349 2 180 q 184 653 2 541 q 355 695 260 695 z "},"è":{"ha":610,"x_min":0,"x_max":505,"o":"m 0 695 l 505 695 l 505 538 l 181 538 l 181 419 l 433 419 l 433 262 l 181 262 l 181 155 l 505 155 l 505 0 l 0 0 l 0 695 m 90 918 l 273 918 q 319 747 279 906 l 170 747 q 90 918 164 753 z "},"é":{"ha":610,"x_min":0,"x_max":505,"o":"m 402 916 q 319 745 332 767 l 170 745 l 214 916 l 402 916 m 0 695 l 505 695 l 505 538 l 181 538 l 181 419 l 433 419 l 433 262 l 181 262 l 181 155 l 505 155 l 505 0 l 0 0 l 0 695 z "},"ê":{"ha":610,"x_min":0,"x_max":505,"o":"m 259 951 l 444 811 l 359 747 l 259 821 l 159 747 l 75 811 l 259 951 m 0 695 l 505 695 l 505 538 l 181 538 l 181 419 l 433 419 l 433 262 l 181 262 l 181 155 l 505 155 l 505 0 l 0 0 l 0 695 z "},"ë":{"ha":610,"x_min":0,"x_max":505,"o":"m 82 882 l 218 882 l 218 747 l 82 747 l 82 882 m 293 882 l 429 882 l 429 747 l 293 747 l 293 882 m 0 695 l 505 695 l 505 538 l 181 538 l 181 419 l 433 419 l 433 262 l 181 262 l 181 155 l 505 155 l 505 0 l 0 0 l 0 695 z "},"ì":{"ha":207,"x_min":-56,"x_max":181,"o":"m 0 695 l 181 695 l 181 0 l 0 0 l 0 695 m -56 918 l 127 918 q 174 747 134 906 l 24 747 q -56 918 19 753 z "},"í":{"ha":207,"x_min":0,"x_max":237,"o":"m 0 695 l 181 695 l 181 0 l 0 0 l 0 695 m 237 916 q 155 745 167 767 l 5 745 l 49 916 l 237 916 z "},"î":{"ha":207,"x_min":-93,"x_max":276,"o":"m 92 951 l 276 811 l 191 747 l 92 821 l -8 747 l -93 811 l 92 951 m 0 695 l 181 695 l 181 0 l 0 0 l 0 695 z "},"ï":{"ha":207,"x_min":-78,"x_max":269,"o":"m 0 695 l 181 695 l 181 0 l 0 0 l 0 695 m -78 882 l 58 882 l 58 747 l -78 747 l -78 882 m 133 882 l 269 882 l 269 747 l 133 747 l 133 882 z "},"ñ":{"ha":679,"x_min":0,"x_max":616,"o":"m 0 695 l 178 695 l 433 290 l 433 695 l 616 695 l 616 0 l 435 0 l 181 405 l 181 0 l 0 0 l 0 695 m 121 850 q 167 899 142 884 q 212 913 188 913 q 258 903 233 913 q 281 893 269 899 l 293 888 l 304 882 q 351 861 335 867 q 396 852 376 852 q 442 865 421 852 q 488 914 467 881 l 488 807 q 442 758 467 774 q 396 745 421 745 q 351 754 376 745 q 304 775 335 760 l 293 781 l 281 786 q 258 796 269 792 q 212 806 233 806 q 167 791 188 805 q 121 743 142 777 l 121 850 z "},"ò":{"ha":747,"x_min":0,"x_max":696,"o":"m 349 696 q 547 634 455 696 q 597 591 563 623 q 650 521 634 551 q 696 349 696 439 l 696 347 q 627 140 696 235 q 583 91 614 122 l 560 72 q 349 0 465 0 l 347 0 q 131 76 229 0 q 71 136 94 107 q 0 349 0 232 q 75 564 0 467 q 123 614 89 583 q 349 696 223 696 m 345 530 l 343 530 q 246 498 294 530 q 216 473 235 492 q 180 418 191 444 q 166 353 166 384 l 166 343 q 200 242 166 292 q 245 198 218 216 q 348 166 294 166 q 479 222 422 166 q 530 347 530 278 q 469 484 530 426 q 422 513 441 506 q 353 530 387 530 l 351 530 l 348 530 l 345 530 m 196 918 l 379 918 q 426 747 385 906 l 276 747 q 196 918 271 753 z "},"ó":{"ha":747,"x_min":0,"x_max":696,"o":"m 349 696 q 547 634 455 696 q 597 591 563 623 q 650 521 634 551 q 696 349 696 439 l 696 347 q 627 140 696 235 q 583 91 614 122 l 560 72 q 349 0 465 0 l 347 0 q 131 76 229 0 q 71 136 94 107 q 0 349 0 232 q 75 564 0 467 q 123 614 89 583 q 349 696 223 696 m 345 530 l 343 530 q 246 498 294 530 q 216 473 235 492 q 180 418 191 444 q 166 353 166 384 l 166 343 q 200 242 166 292 q 245 198 218 216 q 348 166 294 166 q 479 222 422 166 q 530 347 530 278 q 469 484 530 426 q 422 513 441 506 q 353 530 387 530 l 351 530 l 348 530 l 345 530 m 491 916 q 408 745 420 767 l 258 745 l 302 916 l 491 916 z "},"ô":{"ha":747,"x_min":0,"x_max":696,"o":"m 353 951 l 538 811 l 453 747 l 353 821 l 254 747 l 169 811 l 353 951 m 349 696 q 547 634 455 696 q 597 591 563 623 q 650 521 634 551 q 696 349 696 439 l 696 347 q 627 140 696 235 q 583 91 614 122 l 560 72 q 349 0 465 0 l 347 0 q 131 76 229 0 q 71 136 94 107 q 0 349 0 232 q 75 564 0 467 q 123 614 89 583 q 349 696 223 696 m 345 530 l 343 530 q 246 498 294 530 q 216 473 235 492 q 180 418 191 444 q 166 353 166 384 l 166 343 q 200 242 166 292 q 245 198 218 216 q 348 166 294 166 q 479 222 422 166 q 530 347 530 278 q 469 484 530 426 q 422 513 441 506 q 353 530 387 530 l 351 530 l 348 530 l 345 530 z "},"õ":{"ha":747,"x_min":0,"x_max":696,"o":"m 349 696 q 547 634 455 696 q 597 591 563 623 q 650 521 634 551 q 696 349 696 439 l 696 347 q 627 140 696 235 q 583 91 614 122 l 560 72 q 349 0 465 0 l 347 0 q 131 76 229 0 q 71 136 94 107 q 0 349 0 232 q 75 564 0 467 q 123 614 89 583 q 349 696 223 696 m 345 530 l 343 530 q 246 498 294 530 q 216 473 235 492 q 180 418 191 444 q 166 353 166 384 l 166 343 q 200 242 166 292 q 245 198 218 216 q 348 166 294 166 q 479 222 422 166 q 530 347 530 278 q 469 484 530 426 q 422 513 441 506 q 353 530 387 530 l 351 530 l 348 530 l 345 530 m 155 850 q 201 899 176 884 q 246 913 222 913 q 292 903 267 913 q 315 893 302 899 l 327 888 l 338 882 q 385 861 369 867 q 430 852 410 852 q 476 865 455 852 q 522 914 500 881 l 522 807 q 476 758 500 774 q 430 745 455 745 q 385 754 410 745 q 338 775 369 760 l 327 781 l 315 786 q 292 796 302 792 q 246 806 267 806 q 201 791 222 805 q 155 743 176 777 l 155 850 z "},"ö":{"ha":747,"x_min":0,"x_max":696,"o":"m 349 696 q 547 634 455 696 q 597 591 563 623 q 650 521 634 551 q 696 349 696 439 l 696 347 q 627 140 696 235 q 583 91 614 122 l 560 72 q 349 0 465 0 l 347 0 q 131 76 229 0 q 71 136 94 107 q 0 349 0 232 q 75 564 0 467 q 123 614 89 583 q 349 696 223 696 m 345 530 l 343 530 q 246 498 294 530 q 216 473 235 492 q 180 418 191 444 q 166 353 166 384 l 166 343 q 200 242 166 292 q 245 198 218 216 q 348 166 294 166 q 479 222 422 166 q 530 347 530 278 q 469 484 530 426 q 422 513 441 506 q 353 530 387 530 l 351 530 l 348 530 l 345 530 m 180 882 l 316 882 l 316 747 l 180 747 l 180 882 m 391 882 l 527 882 l 527 747 l 391 747 l 391 882 z "},"ù":{"ha":665,"x_min":0,"x_max":583,"o":"m 0 695 l 177 695 l 177 298 q 271 186 177 214 l 294 184 q 401 273 371 184 l 404 292 l 404 361 l 404 695 l 583 695 l 583 313 q 378 12 583 88 q 294 0 334 0 l 282 0 q 44 136 140 0 q 0 292 0 207 l 0 695 m 149 918 l 332 918 q 378 747 338 906 l 229 747 q 149 918 223 753 z "},"ú":{"ha":665,"x_min":0,"x_max":583,"o":"m 0 695 l 177 695 l 177 298 q 271 186 177 214 l 294 184 q 401 273 371 184 l 404 292 l 404 361 l 404 695 l 583 695 l 583 313 q 378 12 583 88 q 294 0 334 0 l 282 0 q 44 136 140 0 q 0 292 0 207 l 0 695 m 437 916 q 355 745 367 767 l 205 745 l 249 916 l 437 916 z "},"û":{"ha":665,"x_min":0,"x_max":583,"o":"m 292 951 l 477 811 l 392 747 l 292 821 l 193 747 l 108 811 l 292 951 m 0 695 l 177 695 l 177 298 q 271 186 177 214 l 294 184 q 401 273 371 184 l 404 292 l 404 361 l 404 695 l 583 695 l 583 313 q 378 12 583 88 q 294 0 334 0 l 282 0 q 44 136 140 0 q 0 292 0 207 l 0 695 z "},"ü":{"ha":665,"x_min":0,"x_max":583,"o":"m 0 695 l 177 695 l 177 298 q 271 186 177 214 l 294 184 q 401 273 371 184 l 404 292 l 404 361 l 404 695 l 583 695 l 583 313 q 378 12 583 88 q 294 0 334 0 l 282 0 q 44 136 140 0 q 0 292 0 207 l 0 695 m 118 882 l 254 882 l 254 747 l 118 747 l 118 882 m 329 882 l 465 882 l 465 747 l 329 747 l 329 882 z "},"ˆ":{"ha":694,"x_min":159,"x_max":528,"o":"m 343 951 l 528 811 l 443 747 l 343 821 l 243 747 l 159 811 l 343 951 z "},"ˇ":{"ha":694,"x_min":159,"x_max":528,"o":"m 343 747 l 159 887 l 243 951 l 343 877 l 443 951 l 528 887 l 343 747 z "},"ˉ":{"ha":694,"x_min":172,"x_max":522,"o":"m 172 810 l 172 958 l 522 958 l 522 810 l 172 810 z "},"˚":{"ha":694,"x_min":227,"x_max":468,"o":"m 279 852 q 298 804 279 824 q 347 785 318 785 q 395 804 375 785 q 414 852 414 824 q 394 900 414 880 q 347 920 374 920 q 299 900 319 920 q 279 852 279 880 m 227 852 q 262 938 227 903 q 347 972 296 972 q 433 938 398 972 q 468 852 468 903 q 433 767 468 802 q 347 732 398 732 q 262 767 296 732 q 227 852 227 802 z "},"˜":{"ha":694,"x_min":159,"x_max":526,"o":"m 246 913 l 250 913 q 382 864 290 913 q 429 853 413 853 l 437 853 q 524 911 481 853 l 526 911 l 526 808 q 438 746 484 746 l 429 746 q 297 797 397 746 q 253 806 270 806 l 250 806 q 161 748 202 806 l 159 748 l 159 851 q 246 913 199 913 z "},"–":{"ha":751,"x_min":38,"x_max":713,"o":"m 38 284 l 38 366 l 713 366 l 713 284 l 38 284 z "},"—":{"ha":1389,"x_min":0,"x_max":1389,"o":"m 0 284 l 0 471 l 1389 471 l 1389 284 l 0 284 z "},"‘":{"ha":378,"x_min":109,"x_max":305,"o":"m 231 1065 l 299 1008 q 242 910 242 960 l 242 891 l 305 891 l 305 696 l 109 696 l 109 861 q 231 1065 109 1010 z "},"’":{"ha":378,"x_min":76,"x_max":272,"o":"m 150 696 l 82 753 q 139 850 139 801 l 139 869 l 76 869 l 76 1065 l 272 1065 l 272 899 q 150 696 272 750 z "},"‚":{"ha":378,"x_min":83,"x_max":256,"o":"m 83 163 l 256 163 l 256 17 q 145 -162 256 -116 l 88 -108 q 137 -10 140 -73 l 83 -10 l 83 163 z "},"“":{"ha":617,"x_min":84,"x_max":499,"o":"m 494 711 l 331 711 l 326 717 l 326 858 q 437 1037 326 991 l 494 988 l 494 983 q 442 888 442 947 l 445 885 l 494 885 l 499 880 l 499 717 l 494 711 m 252 711 l 90 711 l 84 717 l 84 861 q 195 1037 84 990 l 252 988 l 252 983 q 201 893 201 945 l 203 885 l 252 885 l 258 880 l 258 717 l 252 711 z "},"”":{"ha":617,"x_min":98,"x_max":513,"o":"m 103 1037 l 266 1037 l 271 1031 l 271 890 q 160 711 271 758 l 103 760 l 103 766 q 155 861 155 801 l 152 863 l 103 863 l 98 869 l 98 1031 l 103 1037 m 345 1037 l 507 1037 l 513 1031 l 513 888 q 401 711 513 758 l 345 760 l 345 766 q 396 855 396 804 l 393 863 l 345 863 l 339 869 l 339 1031 l 345 1037 z "},"„":{"ha":617,"x_min":83,"x_max":498,"o":"m 83 163 l 256 163 l 256 17 q 145 -162 256 -116 l 88 -108 q 137 -10 140 -73 l 83 -10 l 83 163 m 324 163 l 498 163 l 498 17 q 387 -162 498 -116 l 330 -108 q 378 -10 381 -73 l 324 -10 l 324 163 z "},"•":{"ha":694,"x_min":87,"x_max":597,"o":"m 87 433 q 162 613 87 539 q 343 687 237 687 q 523 613 448 687 q 597 433 597 538 q 522 253 597 328 q 341 178 446 178 q 161 253 235 178 q 87 433 87 328 z "}}}
